<?xml version="1.0" standalone="no"?><!DOCTYPE svg PUBLIC "-//W3C//DTD SVG 1.1//EN" "http://www.w3.org/Graphics/SVG/1.1/DTD/svg11.dtd"><svg xmlns="http://www.w3.org/2000/svg" viewBox="0 0 650 400" version="1.1"><clipPath id="box"><rect x="0" y="0" width="650" height="400" style="fill:none;stroke:none;" /></clipPath><g clip-path="url(#box)"><rect x="0.00" y="0.00" width="650.00" height="400.00" style="fill:#FFFFFF;stroke:none;" /><path d="M0.00 369.00 L650.00 369.00 M0.00 334.00 L650.00 334.00 M0.00 300.00 L650.00 300.00 M0.00 265.00 L650.00 265.00 M0.00 230.00 L650.00 230.00 M0.00 195.00 L650.00 195.00 M0.00 161.00 L650.00 161.00 M0.00 126.00 L650.00 126.00 M0.00 91.00 L650.00 91.00 M0.00 56.00 L650.00 56.00 M0.00 22.00 L650.00 22.00 M32.00 0.00 L32.00 400.00 M97.00 0.00 L97.00 400.00 M162.00 0.00 L162.00 400.00 M227.00 0.00 L227.00 400.00 M292.00 0.00 L292.00 400.00 M357.00 0.00 L357.00 400.00 M422.00 0.00 L422.00 400.00 M487.00 0.00 L487.00 400.00 M552.00 0.00 L552.00 400.00 M617.00 0.00 L617.00 400.00 " style="fill:none;stroke:#FFFFFF;stroke-width:1;" /><path d="M162.50 0.00 L162.50 400.00 " style="fill:none;stroke:#000000;stroke-width:1;" /><path d="M156.00 404.17 L169.00 404.17 M156.00 369.44 L169.00 369.44 M156.00 334.72 L169.00 334.72 M156.00 300.00 L169.00 300.00 M156.00 265.28 L169.00 265.28 M156.00 230.56 L169.00 230.56 M156.00 195.83 L169.00 195.83 M156.00 161.11 L169.00 161.11 M156.00 126.39 L169.00 126.39 M156.00 91.67 L169.00 91.67 M156.00 56.94 L169.00 56.94 M156.00 22.22 L169.00 22.22 " style="fill:none;stroke:#000000;stroke-width:1;" /><path d="M0.00 300.00 L650.00 300.00 " style="fill:none;stroke:#000000;stroke-width:1;" /><path d="M-32.50 293.50 L-32.50 306.50 M32.50 293.50 L32.50 306.50 M97.50 293.50 L97.50 306.50 M162.50 293.50 L162.50 306.50 M227.50 293.50 L227.50 306.50 M292.50 293.50 L292.50 306.50 M357.50 293.50 L357.50 306.50 M422.50 293.50 L422.50 306.50 M487.50 293.50 L487.50 306.50 M552.50 293.50 L552.50 306.50 M617.50 293.50 L617.50 306.50 " style="fill:none;stroke:#000000;stroke-width:1;" /><text x="170.625" y="371.94444444444446" text-anchor="start" style="font:10px Droid Sans,Trebuchet MS,Arial,Helvetica,sans-serif;stroke:none;fill:#000000">-40000</text><text x="170.625" y="337.22222222222223" text-anchor="start" style="font:10px Droid Sans,Trebuchet MS,Arial,Helvetica,sans-serif;stroke:none;fill:#000000">-20000</text><text x="170.625" y="302.5" text-anchor="start" style="font:10px Droid Sans,Trebuchet MS,Arial,Helvetica,sans-serif;stroke:none;fill:#000000">0</text><text x="170.625" y="267.77777777777777" text-anchor="start" style="font:10px Droid Sans,Trebuchet MS,Arial,Helvetica,sans-serif;stroke:none;fill:#000000">20000</text><text x="170.625" y="233.05555555555554" text-anchor="start" style="font:10px Droid Sans,Trebuchet MS,Arial,Helvetica,sans-serif;stroke:none;fill:#000000">40000</text><text x="170.625" y="198.33333333333331" text-anchor="start" style="font:10px Droid Sans,Trebuchet MS,Arial,Helvetica,sans-serif;stroke:none;fill:#000000">60000</text><text x="170.625" y="163.61111111111111" text-anchor="start" style="font:10px Droid Sans,Trebuchet MS,Arial,Helvetica,sans-serif;stroke:none;fill:#000000">80000</text><text x="170.625" y="128.88888888888889" text-anchor="start" style="font:10px Droid Sans,Trebuchet MS,Arial,Helvetica,sans-serif;stroke:none;fill:#000000">100000</text><text x="170.625" y="94.16666666666666" text-anchor="start" style="font:10px Droid Sans,Trebuchet MS,Arial,Helvetica,sans-serif;stroke:none;fill:#000000">120000</text><text x="170.625" y="59.44444444444444" text-anchor="start" style="font:10px Droid Sans,Trebuchet MS,Arial,Helvetica,sans-serif;stroke:none;fill:#000000">140000</text><text x="170.625" y="24.72222222222222" text-anchor="start" style="font:10px Droid Sans,Trebuchet MS,Arial,Helvetica,sans-serif;stroke:none;fill:#000000">160000</text><text x="32.5" y="316.125" text-anchor="middle" style="font:10px Droid Sans,Trebuchet MS,Arial,Helvetica,sans-serif;stroke:none;fill:#000000">-40</text><text x="97.5" y="316.125" text-anchor="middle" style="font:10px Droid Sans,Trebuchet MS,Arial,Helvetica,sans-serif;stroke:none;fill:#000000">-20</text><text x="162.5" y="316.125" text-anchor="middle" style="font:10px Droid Sans,Trebuchet MS,Arial,Helvetica,sans-serif;stroke:none;fill:#000000">0</text><text x="227.49999999999997" y="316.125" text-anchor="middle" style="font:10px Droid Sans,Trebuchet MS,Arial,Helvetica,sans-serif;stroke:none;fill:#000000">20</text><text x="292.5" y="316.125" text-anchor="middle" style="font:10px Droid Sans,Trebuchet MS,Arial,Helvetica,sans-serif;stroke:none;fill:#000000">40</text><text x="357.50000000000006" y="316.125" text-anchor="middle" style="font:10px Droid Sans,Trebuchet MS,Arial,Helvetica,sans-serif;stroke:none;fill:#000000">60</text><text x="422.5" y="316.125" text-anchor="middle" style="font:10px Droid Sans,Trebuchet MS,Arial,Helvetica,sans-serif;stroke:none;fill:#000000">80</text><text x="487.5" y="316.125" text-anchor="middle" style="font:10px Droid Sans,Trebuchet MS,Arial,Helvetica,sans-serif;stroke:none;fill:#000000">100</text><text x="552.5" y="316.125" text-anchor="middle" style="font:10px Droid Sans,Trebuchet MS,Arial,Helvetica,sans-serif;stroke:none;fill:#000000">120</text><text x="617.5" y="316.125" text-anchor="middle" style="font:10px Droid Sans,Trebuchet MS,Arial,Helvetica,sans-serif;stroke:none;fill:#000000">140</text><path d="M-10.00 200.00 L-0.25 300.00 L0.75 300.00 L2.75 300.00 L4.75 300.00 L6.75 300.00 L8.75 300.00 L10.75 300.00 L12.75 300.00 L14.75 300.00 L16.75 300.00 L18.75 300.00 L20.75 300.00 L22.75 300.00 L24.75 300.00 L26.75 300.00 L28.75 300.00 L30.75 300.00 L32.75 300.00 L34.75 300.00 L36.75 300.00 L38.75 300.00 L40.75 300.00 L42.75 300.00 L44.75 300.00 L46.75 300.00 L48.75 300.00 L50.75 300.00 L52.75 300.00 L54.75 300.00 L56.75 300.00 L58.75 300.00 L60.75 300.00 L62.75 300.00 L64.75 300.00 L66.75 300.00 L68.75 300.00 L70.75 300.00 L72.75 300.00 L74.75 300.00 L76.75 300.00 L78.75 300.00 L80.75 300.00 L82.75 300.00 L84.75 300.00 L86.75 300.00 L88.75 300.00 L90.75 300.00 L92.75 300.00 L94.75 300.00 L96.75 300.00 L98.75 300.00 L100.75 300.00 L102.75 300.00 L104.75 300.00 L106.75 300.00 L108.75 300.00 L110.75 300.00 L112.75 300.00 L114.75 300.00 L116.75 300.00 L118.75 300.00 L120.75 300.00 L122.75 300.00 L124.75 300.00 L126.75 300.00 L128.75 300.00 L130.75 300.00 L132.75 300.00 L134.75 300.00 L136.75 300.00 L138.75 300.00 L140.75 300.00 L142.75 300.00 L144.75 300.00 L146.75 300.00 L148.75 300.00 L150.75 300.00 L152.75 300.00 L154.75 300.00 L156.75 300.00 L158.75 300.00 L160.75 300.00 L162.75 300.00 L164.75 300.00 L166.75 300.00 L168.75 300.00 L170.75 300.00 L172.75 300.00 L174.75 300.00 L176.75 300.00 L178.75 300.00 L180.75 300.00 L182.75 300.00 L184.75 300.00 L186.75 300.00 L188.75 300.00 L190.75 300.00 L192.75 300.00 L194.75 300.00 L196.75 300.00 L198.75 300.00 L200.75 300.00 L202.75 300.00 L204.75 300.00 L206.75 300.00 L208.75 300.00 L210.75 300.00 L212.75 300.00 L214.75 300.00 L216.75 300.00 L218.75 300.00 L220.75 300.00 L222.75 300.00 L224.75 300.00 L226.75 300.00 L228.75 300.00 L230.75 300.00 L232.75 300.00 L234.75 300.00 L236.75 300.00 L238.75 300.00 L240.75 300.00 L242.75 300.00 L244.75 300.00 L246.75 300.00 L248.75 300.00 L250.75 300.00 L252.75 300.00 L254.75 300.00 L256.75 300.00 L258.75 300.00 L260.75 300.00 L262.75 300.00 L264.75 300.00 L266.75 300.00 L268.75 300.00 L270.75 300.00 L272.75 300.00 L274.75 300.00 L276.75 300.00 L278.75 300.00 L280.75 300.00 L282.75 300.00 L284.75 300.00 L286.75 300.00 L288.75 300.00 L290.75 300.00 L292.75 300.00 L294.75 300.00 L296.75 300.00 L298.75 300.00 L300.75 300.00 L302.75 300.00 L304.75 300.00 L306.75 300.00 L308.75 300.00 L310.75 300.00 L312.75 300.00 L314.75 300.00 L316.75 300.00 L318.75 300.00 L320.75 300.00 L322.75 300.00 L324.75 300.00 L326.75 300.00 L328.75 300.00 L330.75 300.00 L332.75 300.00 L334.75 300.00 L336.75 300.00 L338.75 300.00 L340.75 300.00 L342.75 300.00 L344.75 300.00 L346.75 300.00 L348.75 300.00 L350.75 300.00 L352.75 300.00 L354.75 300.00 L356.75 300.00 L358.75 300.00 L360.75 300.00 L362.75 300.00 L364.75 300.00 L366.75 300.00 L368.75 300.00 L370.75 300.00 L372.75 300.00 L374.75 300.00 L376.75 300.00 L378.75 300.00 L380.75 300.00 L382.75 300.00 L384.75 300.00 L386.75 300.00 L388.75 300.00 L390.75 300.00 L392.75 300.00 L394.75 300.00 L396.75 300.00 L398.75 300.00 L400.75 300.00 L402.75 300.00 L404.75 300.00 L406.75 300.00 L408.75 300.00 L410.75 300.00 L412.75 300.00 L414.75 300.00 L416.75 300.00 L418.75 300.00 L420.75 300.00 L422.75 300.00 L424.75 300.00 L426.75 300.00 L428.75 300.00 L430.75 300.00 L432.75 300.00 L434.75 300.00 L436.75 300.00 L438.75 300.00 L440.75 300.00 L442.75 300.00 L444.75 300.00 L446.75 300.00 L448.75 300.00 L450.75 300.00 L452.75 300.00 L454.75 300.00 L456.75 300.00 L458.75 300.00 L460.75 300.00 L462.75 300.00 L464.75 300.00 L466.75 300.00 L468.75 300.00 L470.75 300.00 L472.75 300.00 L474.75 300.00 L476.75 300.00 L478.75 300.00 L480.75 300.00 L482.75 300.00 L484.75 300.00 L486.75 300.00 L488.75 300.00 L490.75 300.00 L492.75 300.00 L494.75 300.00 L496.75 300.00 L498.75 300.00 L500.75 300.00 L502.75 300.00 L504.75 300.00 L506.75 300.00 L508.75 300.00 L510.75 300.00 L512.75 300.00 L514.75 300.00 L516.75 300.00 L518.75 300.00 L520.75 300.00 L522.75 300.00 L524.75 300.00 L526.75 300.00 L528.75 300.00 L530.75 300.00 L532.75 300.00 L534.75 300.00 L536.75 300.00 L538.75 300.00 L540.75 300.00 L542.75 300.00 L544.75 300.00 L546.75 300.00 L548.75 300.00 L550.75 300.00 L552.75 300.00 L554.75 300.00 L556.75 300.00 L558.75 300.00 L560.75 300.00 L562.75 300.00 L564.75 300.00 L566.75 300.00 L568.75 300.00 L570.75 300.00 L572.75 300.00 L574.75 300.00 L576.75 300.00 L578.75 300.00 L580.75 300.00 L582.75 300.00 L584.75 300.00 L586.75 300.00 L588.75 300.00 L590.75 300.00 L592.75 300.00 L594.75 300.00 L596.75 300.00 L598.75 300.00 L600.75 300.00 L602.75 300.00 L604.75 300.00 L606.75 300.00 L608.75 300.00 L610.75 300.00 L612.75 300.00 L614.75 300.00 L616.75 300.00 L618.75 300.00 L620.75 300.00 L622.75 300.00 L624.75 300.00 L626.75 300.00 L628.75 300.00 L630.75 300.00 L632.75 300.00 L634.75 300.00 L636.75 300.00 L638.75 300.00 L640.75 300.00 L642.75 300.00 L644.75 300.00 L646.75 300.00 L648.75 300.00 " style="fill:none;stroke:#FF0000;stroke-width:1;" /></g></svg>